<svg width="1920" height="800" viewBox="0 0 1920 800" fill="none" xmlns="http://www.w3.org/2000/svg">
  <defs>
    <!-- Modern geometric gradient -->
    <linearGradient id="featuresGradient" x1="0%" y1="0%" x2="100%" y2="100%">
      <stop offset="0%" style="stop-color:#f8fafc;stop-opacity:1" />
      <stop offset="50%" style="stop-color:#f1f5f9;stop-opacity:1" />
      <stop offset="100%" style="stop-color:#e2e8f0;stop-opacity:1" />
    </linearGradient>
    
    <!-- Hexagon pattern -->
    <pattern id="hexPattern" x="0" y="0" width="120" height="104" patternUnits="userSpaceOnUse">
      <polygon points="60,4 90,24 90,64 60,84 30,64 30,24" 
               fill="none" 
               stroke="rgba(14,165,233,0.1)" 
               stroke-width="1"/>
    </pattern>
    
    <!-- Grid dots -->
    <pattern id="dotGrid" x="0" y="0" width="40" height="40" patternUnits="userSpaceOnUse">
      <circle cx="20" cy="20" r="1" fill="rgba(59,130,246,0.15)"/>
    </pattern>
    
    <!-- Modern shapes -->
    <g id="modernShape1">
      <path d="M0 0 L40 20 L20 50 L-20 30 Z" fill="rgba(34,197,94,0.1)"/>
    </g>
    
    <g id="modernShape2">
      <rect x="0" y="0" width="30" height="30" rx="6" fill="rgba(168,85,247,0.08)" transform="rotate(45)"/>
    </g>
    
    <g id="modernShape3">
      <circle cx="0" cy="0" r="25" fill="none" stroke="rgba(249,115,22,0.12)" stroke-width="2"/>
      <circle cx="0" cy="0" r="15" fill="rgba(249,115,22,0.06)"/>
    </g>
  </defs>
  
  <!-- Background -->
  <rect width="1920" height="800" fill="url(#featuresGradient)"/>
  
  <!-- Hexagon overlay -->
  <rect width="1920" height="800" fill="url(#hexPattern)" opacity="0.7"/>
  
  <!-- Dot grid in corners -->
  <rect x="0" y="0" width="400" height="400" fill="url(#dotGrid)" opacity="0.5"/>
  <rect x="1520" y="400" width="400" height="400" fill="url(#dotGrid)" opacity="0.5"/>
  
  <!-- Decorative shapes -->
  <use href="#modernShape1" x="150" y="100" opacity="0.6"/>
  <use href="#modernShape2" x="300" y="650" opacity="0.4"/>
  <use href="#modernShape3" x="1700" y="150" opacity="0.5"/>
  <use href="#modernShape1" x="1400" y="600" opacity="0.3" transform="scale(1.5)"/>
  <use href="#modernShape2" x="800" y="50" opacity="0.6"/>
  <use href="#modernShape3" x="500" y="700" opacity="0.4" transform="scale(0.8)"/>
  
  <!-- Flowing lines -->
  <path d="M0 400 Q480 350 960 400 T1920 400" 
        stroke="rgba(14,165,233,0.15)" 
        stroke-width="2" 
        fill="none" 
        opacity="0.8"/>
  
  <path d="M0 300 Q400 250 800 300 Q1200 350 1920 300" 
        stroke="rgba(34,197,94,0.12)" 
        stroke-width="1.5" 
        fill="none" 
        opacity="0.6"/>
  
  <!-- Large decorative elements -->
  <circle cx="100" cy="100" r="80" fill="rgba(59,130,246,0.03)" opacity="0.8"/>
  <circle cx="1820" cy="700" r="60" fill="rgba(168,85,247,0.04)" opacity="0.6"/>
  
  <!-- Subtle overlay gradient -->
  <rect width="1920" height="800" fill="url(#featuresGradient)" opacity="0.3"/>
</svg>