<svg width="1920" height="1080" viewBox="0 0 1920 1080" fill="none" xmlns="http://www.w3.org/2000/svg">
  <!-- Gradient background -->
  <defs>
    <linearGradient id="heroGradient" x1="0%" y1="0%" x2="100%" y2="100%">
      <stop offset="0%" style="stop-color:#0f766e;stop-opacity:1" />
      <stop offset="30%" style="stop-color:#0d9488;stop-opacity:0.9" />
      <stop offset="70%" style="stop-color:#14b8a6;stop-opacity:0.8" />
      <stop offset="100%" style="stop-color:#5eead4;stop-opacity:0.7" />
    </linearGradient>
    
    <!-- Hills pattern -->
    <pattern id="hillsPattern" x="0" y="0" width="400" height="200" patternUnits="userSpaceOnUse">
      <path d="M0 150 Q50 120 100 150 T200 150 T300 150 T400 150 L400 200 L0 200 Z" 
            fill="rgba(255,255,255,0.1)" />
      <path d="M0 170 Q60 140 120 170 T240 170 T360 170 L400 200 L0 200 Z" 
            fill="rgba(255,255,255,0.05)" />
    </pattern>
    
    <!-- Sheep silhouettes -->
    <g id="sheep">
      <ellipse cx="0" cy="0" rx="8" ry="6" fill="rgba(255,255,255,0.3)"/>
      <ellipse cx="0" cy="-4" rx="5" ry="4" fill="rgba(255,255,255,0.4)"/>
      <rect x="-1" y="-8" width="2" height="4" fill="rgba(255,255,255,0.5)"/>
    </g>
    
    <!-- Cloud pattern -->
    <g id="cloud">
      <ellipse cx="0" cy="0" rx="30" ry="15" fill="rgba(255,255,255,0.2)"/>
      <ellipse cx="-20" cy="-5" rx="20" ry="12" fill="rgba(255,255,255,0.15)"/>
      <ellipse cx="20" cy="-3" rx="25" ry="10" fill="rgba(255,255,255,0.18)"/>
    </g>
  </defs>
  
  <!-- Main background -->
  <rect width="1920" height="1080" fill="url(#heroGradient)"/>
  
  <!-- Hills overlay -->
  <rect width="1920" height="1080" fill="url(#hillsPattern)" opacity="0.6"/>
  
  <!-- Scattered sheep -->
  <use href="#sheep" x="300" y="600" transform="scale(1.2)"/>
  <use href="#sheep" x="480" y="650" transform="scale(0.8)"/>
  <use href="#sheep" x="720" y="580" transform="scale(1.0)"/>
  <use href="#sheep" x="950" y="620" transform="scale(1.1)"/>
  <use href="#sheep" x="1200" y="590" transform="scale(0.9)"/>
  <use href="#sheep" x="1450" y="640" transform="scale(1.3)"/>
  <use href="#sheep" x="1650" y="610" transform="scale(0.7)"/>
  
  <!-- Clouds -->
  <use href="#cloud" x="200" y="200" opacity="0.7"/>
  <use href="#cloud" x="600" y="150" opacity="0.5"/>
  <use href="#cloud" x="1100" y="180" opacity="0.6"/>
  <use href="#cloud" x="1500" y="120" opacity="0.4"/>
  
  <!-- Subtle geometric overlay -->
  <circle cx="1700" cy="300" r="100" fill="rgba(255,255,255,0.05)" opacity="0.5"/>
  <circle cx="200" cy="400" r="80" fill="rgba(255,255,255,0.03)" opacity="0.7"/>
  <polygon points="1600,800 1650,750 1700,800 1675,820" fill="rgba(255,255,255,0.08)"/>
</svg>